<svg version="1.2" xmlns="http://www.w3.org/2000/svg" viewBox="0 0 926 464" width="1000" height="501">
	<title>pikb28</title>
	<defs>
		<linearGradient id="g1" x2="1" gradientUnits="userSpaceOnUse" gradientTransform="matrix(0,476.896,-952.575,0,583.541,-6.261)">
			<stop offset="0" stop-color="#21195b"/>
			<stop offset=".516" stop-color="#1f0c41"/>
			<stop offset="1" stop-color="#1e0534"/>
		</linearGradient>
	</defs>
	<style>
		.s0 { fill: url(#g1) } 
		.s1 { fill: #1d0737 } 
		.s2 { fill: #31093a } 
		.s3 { opacity: .5;mix-blend-mode: lighten;fill: #cccccc } 
		.s4 { opacity: .3;mix-blend-mode: lighten;fill: #cccccc } 
		.s5 { opacity: .9;mix-blend-mode: lighten;fill: #cccccc } 
	</style>
	<g id="_Artboards_">
	</g>
	<g id="Layer 1">
		<path id="&lt;Path&gt;" fill-rule="evenodd" class="s0" d="m942.8-8v480h-958.8v-480z"/>
		<g id="&lt;Group&gt;">
			<path id="&lt;Path&gt;" class="s1" d="m917.1 323.7v129.4 10.9h-917v-21.3h33.2v-52.5h3.5v-8.4l32.3-6.6v15h6.1v42.4h21.9v-50.8h6.2v-10.6h4.4v-50.8h30.1v50.8h4.4v10.6h6.2v50.8h5.5v-138.7h10v-8.9h22.4v8.9h6.2v94.7h17v-81.1h48.4v70.3h11.5v-149.7c-0.5-0.2-1-0.7-1-1.4 0-0.8 0.7-1.5 1.5-1.5h8.2v-7h-0.5c-0.6 0-1.1-0.5-1.1-1.1 0-0.7 0.5-1.2 1.1-1.2h7.2v-4.5c0-0.4 0.4-0.8 0.8-0.8h8.9v-6.9h0.6v6.9h8.9c0.5 0 0.8 0.4 0.8 0.8v4.5h7.2c0.7 0 1.1 0.5 1.1 1.2 0 0.6-0.4 1.1-1.1 1.1h-0.4v7h8.2c0.8 0 1.4 0.7 1.4 1.5 0 0.8-0.6 1.4-1.3 1.5v78h2.1v56h2.4v-56h2v-11.9h9.3v-55.4h36.6v55.4h3.3v136.8h2.1v-136.8h2.9v-71.8h49.1v59.2h3.4l1.3-73.2c0-7.3 5.1-13.4 11.9-14.7v-10.3h7.2v-12h7v-10.6h1v10.6h7.1v12h7.1v10.3c6.8 1.3 12 7.4 12 14.7v75.7h1.5v-10.3c0-5.8 4.6-10.5 10.2-10.5h16.5c5.6 0 10.2 4.7 10.2 10.5v10.3h15.8v38h4.1v-6.4c0-4.7 3.3-8.6 7.7-9.4v-84.5h6.2l2.9-8.2h16.1l3.8 8.2h6.7v34.1h2.5v-64.6h3.6v-4.2h8v-2.5c0-2.8 2.2-5 4.8-5h22.9c2.7 0 4.8 2.2 4.8 5v2.5h8v4.2h3.6v146.8h7.6v-114.7h4.7v-9.3h6.1v-12.2h27.3v12.2h3.1v9.3h2.3v24.3h1.8v-24.3h2.1v-14.9h26.3v-3.3h7.2v3.3h11v79.9h14.8v-60h5.2v-4.3h4.3v-2.4h18.3v-2.9h6.7v2.9h13.2v-2.9h8.3v2.9h3.5v2.4h2.1v4.3h2.8v74.4h52.1v59.8h4.5v-39z"/>
			<path id="&lt;Path&gt;" class="s2" d="m900.4 438.4v-7.3h-2.6v-18.1c0-1.4-1-2.6-2.1-2.6h-2.2v-6.3c0-1.4-1-2.6-2.1-2.6h-1.1l-3.5-8.5-4 8.5h-2.3c-1.2 0-2.1 1.2-2.1 2.6v6.3h-11.8q-0.2 0-0.3 0v-70.2h-27.2v68h-2.3v-73.8h-3c-1.2-3.9-4.3-6.8-7.9-6.8-3.6 0-6.7 2.9-7.9 6.8h-4.6v38.7h-20.7v29h-1.7v-39.3h-20.3v36h-3.2l0.1-41.2h-20.1v-62.2l-34.5 15.2v72.8h-5.3l-0.2-85.2-27.8-6.8v68.1h-4.4l0.2-72.7h-6.1v-6.9h-1.8v-3.8h-3.4v-3.2h-5.3l-4.6-9.3-4.2 9.3h-5.6v3.2h-6.2v3.8h-5.9v13.5h-3.2v17.8h-8.4v-57.1h-1.6v-2.6h-3.5v-6.8h-14.8v6.8h-2.8v2.6h-3.5v69.6h-19.6v48.4l-8 3.1v-34.1l-10.3-24.4-9.8 24.4v37.7h-10.6v-37.7c0.4-0.2 0.8-0.8 0.8-1.4 0-0.9-0.6-1.7-1.4-1.7h-12.9q-0.5 0-0.8 0.4v-20.8c0.3-0.1 0.5-0.5 0.5-0.9 0-0.5-0.3-0.9-0.7-0.9h-3.3c0.6-8.3-6.4-6.1-6.4-6.1 0 0-1.5 3.7-3.6 6.1h-6.5c-0.9-1.3-1.4-3-3.7-4.3-3.2-1.9-6.7 2.8-7.7 4.3h-5.4c0 0.7 0 65.1 0 65.1h-3l0.2-85.5-6.2-6c0.6-0.8 1-1.8 1-2.9 0-3-3-5.4-6.6-5.4-3.7 0-6.6 2.4-6.6 5.4q0 1.2 0.5 2.1l-5.8 5.3v46.3l-27.1-0.2v27h-4.9l1.5-109.7h-3.3v-10.9h-3.3v-5.1h-40v5.1h-4.4v10.9h-4.2v28.1h-2.1v-14h0.1c0.7 0 1.3-0.7 1.3-1.5 0-0.9-0.6-1.6-1.3-1.6h-3.8v-2.4h-6.6v2.4h-2.4v-6.7h-9.2v6.7h-1.8v-2.4h-19.9v2.4h-1.9v-4.6l-3.6 4.6h-4.7c-0.7 0-1.2 0.7-1.2 1.6 0 0.7 0.4 1.4 1 1.5v105.5h-5.6v-44.8c0.4 0 0.8-0.5 0.8-1.1 0-0.6-0.4-1-0.9-1h-2.4v-4.6h-4.9v4.6h-6.1v-17.3h-9.7v7.4h-3.1v9.9h-2v-4.6h-4.1v4.6h-2.5c-0.5 0-0.9 0.4-0.9 1 0 0.5 0.3 0.9 0.7 1.1v70.8h-5.9v-60.5h0.1c0.6 0 1.1-0.6 1.1-1.4 0-0.7-0.5-1.4-1.1-1.4h-2.5q0-0.3 0-0.6c0-2.9-1.9-5.3-4.3-5.3h-4q0.1-0.5 0.2-1.2c0-1.9-1.3-3.4-2.8-3.4h-15.1c-1.6 0-2.8 1.5-2.8 3.4q0 0.7 0.1 1.2h-6.8c-2.4 0-4.4 2.4-4.4 5.3q0 0.3 0 0.6h-3.8c-0.7 0-1.2 0.7-1.2 1.4 0 0.8 0.5 1.4 1.2 1.4h0.3v19.9l-7.2 7.4v23.7l-11.7-4.7v27.9h-10.2v8.6h-9.3v10.3h-6.3v-12.3h-10.7v-41.9l-9.9-16.6-12.7 16.6v43.9h-33.9v-51.2h-2.8v-4.3h-2.6v-7.2h-1.9v-8.9h-1.1v-7.5c0.3 0 0.6-0.4 0.6-0.9 0-0.4-0.3-0.8-0.7-0.8h-27c-0.4 0-0.7 0.4-0.7 0.8 0 0.4 0.2 0.6 0.4 0.8v16.5h-2.3v7.2h-2.6v4.3h-3.5v54.7h-1.4v-19.7h-6.1v-16.4c0.3-0.1 0.6-0.4 0.6-0.9 0-0.5-0.4-0.9-0.8-0.9h-9.3q-0.1 0-0.1 0v-6.6c0.3-0.2 0.5-0.6 0.5-1 0-0.6-0.4-1.1-0.9-1.1h-2.6v-2.6c0.2-0.2 0.4-0.5 0.4-0.9 0-0.5-0.3-0.9-0.7-0.9h-34.5c-0.4 0-0.7 0.4-0.7 0.9 0 0.5 0.2 0.8 0.6 0.9v2.6h-2.8c-0.5 0-0.9 0.5-0.9 1.1 0 0.4 0.2 0.8 0.5 1v8.5h-1c-0.5 0-0.9 0.5-0.9 1.1 0 0.5 0.2 0.9 0.5 1v44.8h-8.7v24.4h925.8v-25.6z"/>
			<g id="&lt;Group&gt;">
				<g id="&lt;Group&gt;" style="opacity: .4;mix-blend-mode: soft-light">
					<path id="&lt;Path&gt;" class="s3" d="m497 361.9h-9.5v-13.6h9.5z"/>
					<path id="&lt;Path&gt;" class="s3" d="m530.8 361.9h-9.4v-13.6h9.4z"/>
					<path id="&lt;Path&gt;" class="s3" d="m508.3 378.2h-9.5v-13.6h9.5z"/>
					<path id="&lt;Path&gt;" class="s3" d="m519.6 378.2h-9.5v-13.6h9.5z"/>
					<path id="&lt;Path&gt;" class="s3" d="m530.8 378.2h-9.4v-13.6h9.4z"/>
					<path id="&lt;Path&gt;" class="s3" d="m530.8 394.4h-9.4v-13.6h9.4z"/>
					<path id="&lt;Path&gt;" class="s3" d="m508.3 410.7h-9.5v-13.6h9.5z"/>
					<path id="&lt;Path&gt;" class="s3" d="m519.6 410.7h-9.5v-13.6h9.5z"/>
					<path id="&lt;Path&gt;" class="s3" d="m530.8 410.7h-9.4v-13.6h9.4z"/>
				</g>
				<g id="&lt;Group&gt;" style="opacity: 1;mix-blend-mode: soft-light">
					<path id="&lt;Path&gt;" class="s3" d="m645.4 330.5h-7.4v10.6h7.4z"/>
					<path id="&lt;Path&gt;" class="s3" d="m671.9 330.5h-7.4v10.6h7.4z"/>
					<path id="&lt;Path&gt;" class="s3" d="m671.9 318.4h-7.4v10.6h7.4z"/>
					<path id="&lt;Path&gt;" class="s3" d="m671.9 305.1h-7.4v10.6h7.4z"/>
					<path id="&lt;Path&gt;" class="s3" d="m671.9 292.3h-7.4v10.6h7.4z"/>
				</g>
				<g id="&lt;Group&gt;" style="opacity: .3;mix-blend-mode: soft-light">
					<path id="&lt;Path&gt;" class="s3" d="m806.8 410.9v-7.4h-13.4v7.4z"/>
					<path id="&lt;Path&gt;" class="s3" d="m806.8 437.4v-7.4h-13.4v7.4z"/>
					<path id="&lt;Path&gt;" class="s3" d="m822.9 419.7v-7.4h-13.4v7.4z"/>
					<path id="&lt;Path&gt;" class="s3" d="m822.9 428.5v-7.3h-13.4v7.3z"/>
					<path id="&lt;Path&gt;" class="s3" d="m822.9 437.4v-7.4h-13.4v7.4z"/>
					<path id="&lt;Path&gt;" class="s3" d="m845.8 437.4v-7.4h-13.4v7.4z"/>
					<path id="&lt;Path&gt;" class="s3" d="m861.9 419.7v-7.4h-13.4v7.4z"/>
					<path id="&lt;Path&gt;" class="s3" d="m861.9 428.5v-7.3h-13.4v7.3z"/>
					<path id="&lt;Path&gt;" class="s3" d="m861.9 437.4v-7.4h-13.4v7.4z"/>
				</g>
				<g id="&lt;Group&gt;" style="opacity: .5;mix-blend-mode: soft-light">
					<path id="&lt;Path&gt;" class="s3" d="m664.5 383.5h7.4v10.6h-7.4z"/>
					<path id="&lt;Path&gt;" class="s3" d="m638 383.5h7.4v10.6h-7.4z"/>
					<path id="&lt;Path&gt;" class="s3" d="m655.7 370.7h7.3v10.7h-7.3z"/>
					<path id="&lt;Path&gt;" class="s3" d="m646.8 370.7h7.4v10.7h-7.4z"/>
					<path id="&lt;Path&gt;" class="s3" d="m638 370.7h7.4v10.7h-7.4z"/>
					<path id="&lt;Path&gt;" class="s3" d="m638 358h7.4v10.6h-7.4z"/>
					<path id="&lt;Path&gt;" class="s3" d="m655.7 345.3h7.3v10.6h-7.3z"/>
					<path id="&lt;Path&gt;" class="s3" d="m646.8 345.3h7.4v10.6h-7.4z"/>
					<path id="&lt;Path&gt;" class="s3" d="m638 345.3h7.4v10.6h-7.4z"/>
				</g>
				<g id="&lt;Group&gt;" style="opacity: .5;mix-blend-mode: soft-light">
					<path id="&lt;Path&gt;" class="s3" d="m748.8 378.1h7.3v-10.7h-7.3z"/>
					<path id="&lt;Path&gt;" class="s3" d="m722.3 378.1h7.4v-10.7h-7.4z"/>
					<path id="&lt;Path&gt;" class="s3" d="m739.9 390.8h7.4v-10.6h-7.4z"/>
					<path id="&lt;Path&gt;" class="s3" d="m731.1 390.8h7.4v-10.6h-7.4z"/>
					<path id="&lt;Path&gt;" class="s3" d="m722.3 390.8h7.4v-10.6h-7.4z"/>
					<path id="&lt;Path&gt;" class="s3" d="m722.3 403.5h7.4v-10.6h-7.4z"/>
					<path id="&lt;Path&gt;" class="s3" d="m739.9 416.2h7.4v-10.6h-7.4z"/>
					<path id="&lt;Path&gt;" class="s3" d="m731.1 416.2h7.4v-10.6h-7.4z"/>
					<path id="&lt;Path&gt;" class="s3" d="m722.3 416.2h7.4v-10.6h-7.4z"/>
				</g>
				<g id="&lt;Group&gt;" style="opacity: .9;mix-blend-mode: soft-light">
					<path id="&lt;Path&gt;" class="s3" d="m857.2 353.7h4.5v-6.5h-4.5z"/>
					<path id="&lt;Path&gt;" class="s3" d="m841.1 353.7h4.5v-6.5h-4.5z"/>
					<path id="&lt;Path&gt;" class="s3" d="m851.8 361.4h4.5v-6.4h-4.5z"/>
					<path id="&lt;Path&gt;" class="s3" d="m846.5 361.4h4.5v-6.4h-4.5z"/>
					<path id="&lt;Path&gt;" class="s3" d="m841.1 361.4h4.5v-6.4h-4.5z"/>
					<path id="&lt;Path&gt;" class="s3" d="m841.1 369.1h4.5v-6.4h-4.5z"/>
					<path id="&lt;Path&gt;" class="s3" d="m851.8 376.9h4.5v-6.5h-4.5z"/>
					<path id="&lt;Path&gt;" class="s3" d="m846.5 376.9h4.5v-6.5h-4.5z"/>
					<path id="&lt;Path&gt;" class="s3" d="m841.1 376.9h4.5v-6.5h-4.5z"/>
				</g>
				<g id="&lt;Group&gt;" style="opacity: .5;mix-blend-mode: soft-light">
					<path id="&lt;Path&gt;" class="s3" d="m845.6 386.6h-4.5v-6.4h4.5z"/>
					<path id="&lt;Path&gt;" class="s3" d="m861.7 386.6h-4.5v-6.4h4.5z"/>
					<path id="&lt;Path&gt;" class="s3" d="m851 394.3h-4.5v-6.4h4.5z"/>
					<path id="&lt;Path&gt;" class="s3" d="m856.3 394.3h-4.5v-6.4h4.5z"/>
					<path id="&lt;Path&gt;" class="s3" d="m861.7 394.3h-4.5v-6.4h4.5z"/>
					<path id="&lt;Path&gt;" class="s3" d="m861.7 402.1h-4.5v-6.5h4.5z"/>
					<path id="&lt;Path&gt;" class="s3" d="m851 409.8h-4.5v-6.5h4.5z"/>
					<path id="&lt;Path&gt;" class="s3" d="m856.3 409.8h-4.5v-6.5h4.5z"/>
					<path id="&lt;Path&gt;" class="s3" d="m861.7 409.8h-4.5v-6.5h4.5z"/>
				</g>
				<g id="&lt;Group&gt;" style="opacity: .5;mix-blend-mode: soft-light">
					<path id="&lt;Path&gt;" class="s3" d="m819.1 347.6h-4.5v-6.5h4.5z"/>
					<path id="&lt;Path&gt;" class="s3" d="m835.1 347.6h-4.4v-6.5h4.4z"/>
					<path id="&lt;Path&gt;" class="s3" d="m824.4 355.3h-4.5v-6.5h4.5z"/>
					<path id="&lt;Path&gt;" class="s3" d="m835.1 355.3h-4.4v-6.5h4.4z"/>
					<path id="&lt;Path&gt;" class="s3" d="m835.1 363h-4.4v-6.4h4.4z"/>
					<path id="&lt;Path&gt;" class="s3" d="m824.4 370.7h-4.5v-6.4h4.5z"/>
					<path id="&lt;Path&gt;" class="s3" d="m835.1 370.7h-4.4v-6.4h4.4z"/>
				</g>
				<g id="&lt;Group&gt;" style="opacity: .4;mix-blend-mode: soft-light">
					<path id="&lt;Path&gt;" class="s3" d="m601.6 274.4h-4.2v-7.9h4.2z"/>
					<path id="&lt;Path&gt;" class="s3" d="m616.5 274.4h-4.2v-7.9h4.2z"/>
					<path id="&lt;Path&gt;" class="s3" d="m606.5 283.9h-4.1v-7.9h4.1z"/>
					<path id="&lt;Path&gt;" class="s3" d="m611.5 283.9h-4.1v-7.9h4.1z"/>
					<path id="&lt;Path&gt;" class="s3" d="m616.5 283.9h-4.2v-7.9h4.2z"/>
					<path id="&lt;Path&gt;" class="s3" d="m616.5 293.4h-4.2v-7.9h4.2z"/>
					<path id="&lt;Path&gt;" class="s3" d="m606.5 302.9h-4.1v-7.9h4.1z"/>
					<path id="&lt;Path&gt;" class="s3" d="m611.5 302.9h-4.1v-7.9h4.1z"/>
					<path id="&lt;Path&gt;" class="s3" d="m616.5 302.9h-4.2v-7.9h4.2z"/>
				</g>
				<g id="&lt;Group&gt;" style="opacity: .4;mix-blend-mode: soft-light">
					<path id="&lt;Path&gt;" class="s3" d="m687.1 320.6h-5v-8.4h5z"/>
					<path id="&lt;Path&gt;" class="s3" d="m704.9 320.6h-4.9v-8.4h4.9z"/>
					<path id="&lt;Path&gt;" class="s3" d="m693 330.6h-4.9v-8.4h4.9z"/>
					<path id="&lt;Path&gt;" class="s3" d="m699 330.6h-5v-8.4h5z"/>
					<path id="&lt;Path&gt;" class="s3" d="m704.9 330.6h-4.9v-8.4h4.9z"/>
					<path id="&lt;Path&gt;" class="s3" d="m704.9 340.6h-4.9v-8.4h4.9z"/>
					<path id="&lt;Path&gt;" class="s3" d="m693 350.6h-4.9v-8.4h4.9z"/>
					<path id="&lt;Path&gt;" class="s3" d="m699 350.6h-5v-8.4h5z"/>
					<path id="&lt;Path&gt;" class="s3" d="m704.9 350.6h-4.9v-8.4h4.9z"/>
				</g>
				<g id="&lt;Group&gt;" style="opacity: .2;mix-blend-mode: soft-light">
					<path id="&lt;Path&gt;" class="s3" d="m612.7 341.2h4.2v-10.8h-4.2z"/>
					<path id="&lt;Path&gt;" class="s3" d="m597.8 341.2h4.2v-10.8h-4.2z"/>
					<path id="&lt;Path&gt;" class="s3" d="m607.8 354h4.1v-10.7h-4.1z"/>
					<path id="&lt;Path&gt;" class="s3" d="m602.8 354h4.2v-10.7h-4.2z"/>
					<path id="&lt;Path&gt;" class="s3" d="m597.8 354h4.2v-10.7h-4.2z"/>
					<path id="&lt;Path&gt;" class="s3" d="m597.8 366.9h4.2v-10.7h-4.2z"/>
					<path id="&lt;Path&gt;" class="s3" d="m607.8 379.7h4.1v-10.7h-4.1z"/>
					<path id="&lt;Path&gt;" class="s3" d="m602.8 379.7h4.2v-10.7h-4.2z"/>
					<path id="&lt;Path&gt;" class="s3" d="m597.8 379.7h4.2v-10.7h-4.2z"/>
				</g>
				<g id="&lt;Group&gt;" style="opacity: .2;mix-blend-mode: soft-light">
					<path id="&lt;Path&gt;" class="s3" d="m561.4 349.5h3.3v-8.4h-3.3z"/>
					<path id="&lt;Path&gt;" class="s3" d="m549.7 349.5h3.3v-8.4h-3.3z"/>
					<path id="&lt;Path&gt;" class="s3" d="m557.5 359.5h3.3v-8.3h-3.3z"/>
					<path id="&lt;Path&gt;" class="s3" d="m553.6 359.5h3.3v-8.3h-3.3z"/>
					<path id="&lt;Path&gt;" class="s3" d="m549.7 359.5h3.3v-8.3h-3.3z"/>
					<path id="&lt;Path&gt;" class="s3" d="m549.7 369.6h3.3v-8.4h-3.3z"/>
					<path id="&lt;Path&gt;" class="s3" d="m557.5 379.7h3.3v-8.4h-3.3z"/>
					<path id="&lt;Path&gt;" class="s3" d="m553.6 379.7h3.3v-8.4h-3.3z"/>
					<path id="&lt;Path&gt;" class="s3" d="m549.7 379.7h3.3v-8.4h-3.3z"/>
				</g>
				<g id="&lt;Group&gt;" style="opacity: 0;mix-blend-mode: soft-light">
					<path id="&lt;Path&gt;" class="s3" d="m565.5 417.8h3.2v8.4h-3.2z"/>
					<path id="&lt;Path&gt;" class="s3" d="m553.8 417.8h3.2v8.4h-3.2z"/>
					<path id="&lt;Path&gt;" class="s3" d="m561.6 407.7h3.2v8.4h-3.2z"/>
					<path id="&lt;Path&gt;" class="s3" d="m557.7 407.7h3.2v8.4h-3.2z"/>
					<path id="&lt;Path&gt;" class="s3" d="m553.8 407.7h3.2v8.4h-3.2z"/>
					<path id="&lt;Path&gt;" class="s3" d="m553.8 397.7h3.2v8.4h-3.2z"/>
					<path id="&lt;Path&gt;" class="s3" d="m561.6 387.6h3.2v8.4h-3.2z"/>
					<path id="&lt;Path&gt;" class="s3" d="m557.7 387.6h3.2v8.4h-3.2z"/>
					<path id="&lt;Path&gt;" class="s3" d="m553.8 387.6h3.2v8.4h-3.2z"/>
				</g>
				<g id="&lt;Group&gt;" style="opacity: .4;mix-blend-mode: soft-light">
					<path id="&lt;Path&gt;" class="s3" d="m465 364.9h7.3v-10.6h-7.3z"/>
					<path id="&lt;Path&gt;" class="s3" d="m438.5 364.9h7.4v-10.6h-7.4z"/>
					<path id="&lt;Path&gt;" class="s3" d="m456.1 377.6h7.4v-10.6h-7.4z"/>
					<path id="&lt;Path&gt;" class="s3" d="m447.3 377.6h7.4v-10.6h-7.4z"/>
					<path id="&lt;Path&gt;" class="s3" d="m438.5 377.6h7.4v-10.6h-7.4z"/>
					<path id="&lt;Path&gt;" class="s3" d="m456.1 403.1h7.4v-10.7h-7.4z"/>
					<path id="&lt;Path&gt;" class="s3" d="m438.5 403.1h7.4v-10.7h-7.4z"/>
				</g>
				<g id="&lt;Group&gt;" style="opacity: .4;mix-blend-mode: soft-light">
					<path id="&lt;Path&gt;" class="s3" d="m408.9 265.8h7.4v-10.6h-7.4z"/>
					<path id="&lt;Path&gt;" class="s3" d="m382.4 265.8h7.4v-10.6h-7.4z"/>
					<path id="&lt;Path&gt;" class="s3" d="m400.1 278.5h7.4v-10.6h-7.4z"/>
					<path id="&lt;Path&gt;" class="s3" d="m391.2 278.5h7.4v-10.6h-7.4z"/>
					<path id="&lt;Path&gt;" class="s3" d="m382.4 278.5h7.4v-10.6h-7.4z"/>
					<path id="&lt;Path&gt;" class="s3" d="m400.1 304h7.4v-10.6h-7.4z"/>
					<path id="&lt;Path&gt;" class="s3" d="m382.4 304h7.4v-10.6h-7.4z"/>
				</g>
				<g id="&lt;Group&gt;" style="opacity: .4;mix-blend-mode: soft-light">
					<path id="&lt;Path&gt;" class="s3" d="m231.2 395.5h7.4v-10.6h-7.4z"/>
					<path id="&lt;Path&gt;" class="s3" d="m248.8 408.2h7.4v-10.6h-7.4z"/>
					<path id="&lt;Path&gt;" class="s3" d="m240 408.2h7.4v-10.6h-7.4z"/>
					<path id="&lt;Path&gt;" class="s3" d="m231.2 408.2h7.4v-10.6h-7.4z"/>
					<path id="&lt;Path&gt;" class="s3" d="m247 442.3h7.4v-10.6h-7.4z"/>
					<path id="&lt;Path&gt;" class="s3" d="m229.3 442.3h7.4v-10.6h-7.4z"/>
				</g>
				<g id="&lt;Group&gt;" style="opacity: .4;mix-blend-mode: soft-light">
					<path id="&lt;Path&gt;" class="s3" d="m355.4 377.8h7.3v10.6h-7.3z"/>
					<path id="&lt;Path&gt;" class="s3" d="m328.9 377.8h7.4v10.6h-7.4z"/>
					<path id="&lt;Path&gt;" class="s3" d="m346.5 365h7.4v10.6h-7.4z"/>
					<path id="&lt;Path&gt;" class="s3" d="m337.7 365h7.4v10.6h-7.4z"/>
					<path id="&lt;Path&gt;" class="s3" d="m328.9 365h7.4v10.6h-7.4z"/>
					<path id="&lt;Path&gt;" class="s3" d="m346.5 339.6h7.4v10.6h-7.4z"/>
					<path id="&lt;Path&gt;" class="s3" d="m328.9 339.6h7.4v10.6h-7.4z"/>
				</g>
				<g id="&lt;Group&gt;" style="opacity: .4">
					<path id="&lt;Path&gt;" class="s3" d="m358.5 292.5h-7.5v-10.8h7.5z"/>
					<path id="&lt;Path&gt;" class="s3" d="m340.6 305.3h-7.5v-10.7h7.5z"/>
					<path id="&lt;Path&gt;" class="s3" d="m349.5 305.3h-7.4v-10.7h7.4z"/>
					<path id="&lt;Path&gt;" class="s3" d="m358.5 305.3h-7.5v-10.7h7.5z"/>
					<path id="&lt;Path&gt;" class="s3" d="m349.5 318.2h-7.4v-10.7h7.4z"/>
					<path id="&lt;Path&gt;" class="s3" d="m358.5 318.2h-7.5v-10.7h7.5z"/>
					<path id="&lt;Path&gt;" class="s3" d="m340.6 331.1h-7.5v-10.7h7.5z"/>
					<path id="&lt;Path&gt;" class="s3" d="m349.5 331.1h-7.4v-10.7h7.4z"/>
					<path id="&lt;Path&gt;" class="s3" d="m358.5 331.1h-7.5v-10.7h7.5z"/>
				</g>
				<g id="&lt;Group&gt;" style="opacity: .4">
					<path id="&lt;Path&gt;" class="s3" d="m284.2 348.4h-5.8v-8.4h5.8z"/>
					<path id="&lt;Path&gt;" class="s4" d="m291.2 348.4h-5.9v-8.4h5.9z"/>
					<path id="&lt;Path&gt;" class="s3" d="m305.2 348.4h-5.9v-8.4h5.9z"/>
					<path id="&lt;Path&gt;" class="s3" d="m291.2 358.5h-5.9v-8.4h5.9z"/>
					<path id="&lt;Path&gt;" class="s3" d="m298.2 358.5h-5.9v-8.4h5.9z"/>
					<path id="&lt;Path&gt;" class="s3" d="m305.2 358.5h-5.9v-8.4h5.9z"/>
					<path id="&lt;Path&gt;" class="s5" d="m284.2 368.6h-5.8v-8.4h5.8z"/>
					<path id="&lt;Path&gt;" class="s3" d="m298.2 368.6h-5.9v-8.4h5.9z"/>
					<path id="&lt;Path&gt;" class="s3" d="m305.2 368.6h-5.9v-8.4h5.9z"/>
					<path id="&lt;Path&gt;" class="s3" d="m291.2 378.7h-5.9v-8.4h5.9z"/>
					<path id="&lt;Path&gt;" class="s3" d="m298.2 378.7h-5.9v-8.4h5.9z"/>
					<path id="&lt;Path&gt;" class="s3" d="m305.2 378.7h-5.9v-8.4h5.9z"/>
				</g>
				<g id="&lt;Group&gt;" style="opacity: .4">
					<path id="&lt;Path&gt;" class="s3" d="m24.5 424.6h-5.8v8.4h5.8z"/>
					<path id="&lt;Path&gt;" class="s4" d="m31.5 424.6h-5.9v8.4h5.9z"/>
					<path id="&lt;Path&gt;" class="s3" d="m45.5 424.6h-5.9v8.4h5.9z"/>
					<path id="&lt;Path&gt;" class="s3" d="m31.5 414.5h-5.9v8.4h5.9z"/>
					<path id="&lt;Path&gt;" class="s3" d="m38.5 414.5h-5.9v8.4h5.9z"/>
					<path id="&lt;Path&gt;" class="s3" d="m45.5 414.5h-5.9v8.4h5.9z"/>
					<path id="&lt;Path&gt;" class="s5" d="m24.5 404.4h-5.8v8.5h5.8z"/>
					<path id="&lt;Path&gt;" class="s3" d="m38.5 404.4h-5.9v8.5h5.9z"/>
					<path id="&lt;Path&gt;" class="s3" d="m45.5 404.4h-5.9v8.5h5.9z"/>
					<path id="&lt;Path&gt;" class="s3" d="m31.5 394.4h-5.9v8.4h5.9z"/>
					<path id="&lt;Path&gt;" class="s3" d="m38.5 394.4h-5.9v8.4h5.9z"/>
					<path id="&lt;Path&gt;" class="s3" d="m45.5 394.4h-5.9v8.4h5.9z"/>
				</g>
				<g id="&lt;Group&gt;" style="opacity: .4">
					<path id="&lt;Path&gt;" class="s3" d="m242.2 353.5h-5.9v-8.4h5.9z"/>
					<path id="&lt;Path&gt;" class="s3" d="m263.2 353.5h-5.9v-8.4h5.9z"/>
					<path id="&lt;Path&gt;" class="s3" d="m249.2 363.5h-5.9v-8.4h5.9z"/>
					<path id="&lt;Path&gt;" class="s3" d="m263.2 363.5h-5.9v-8.4h5.9z"/>
					<path id="&lt;Path&gt;" class="s5" d="m242.2 373.6h-5.9v-8.4h5.9z"/>
					<path id="&lt;Path&gt;" class="s3" d="m256.2 373.6h-5.9v-8.4h5.9z"/>
					<path id="&lt;Path&gt;" class="s3" d="m249.2 383.7h-5.9v-8.4h5.9z"/>
					<path id="&lt;Path&gt;" class="s3" d="m256.2 383.7h-5.9v-8.4h5.9z"/>
				</g>
				<g id="&lt;Group&gt;" style="opacity: .4">
					<path id="&lt;Path&gt;" class="s3" d="m84 387.7h-5.9v-8.5h5.9z"/>
					<path id="&lt;Path&gt;" class="s3" d="m104.9 387.7h-5.8v-8.5h5.8z"/>
					<path id="&lt;Path&gt;" class="s3" d="m91 397.7h-5.9v-8.4h5.9z"/>
					<path id="&lt;Path&gt;" class="s3" d="m104.9 397.7h-5.8v-8.4h5.8z"/>
					<path id="&lt;Path&gt;" class="s5" d="m84 407.8h-5.9v-8.4h5.9z"/>
					<path id="&lt;Path&gt;" class="s3" d="m98 407.8h-5.9v-8.4h5.9z"/>
					<path id="&lt;Path&gt;" class="s3" d="m104.9 407.8h-5.8v-8.4h5.8z"/>
					<path id="&lt;Path&gt;" class="s3" d="m91 417.9h-5.9v-8.4h5.9z"/>
					<path id="&lt;Path&gt;" class="s3" d="m98 417.9h-5.9v-8.4h5.9z"/>
				</g>
				<g id="&lt;Group&gt;" style="opacity: .8;mix-blend-mode: soft-light">
					<path id="&lt;Path&gt;" class="s3" d="m152.1 391.4h-4.3v-6.2h4.3z"/>
					<path id="&lt;Path&gt;" class="s3" d="m167.5 391.4h-4.3v-6.2h4.3z"/>
					<path id="&lt;Path&gt;" class="s3" d="m157.2 398.8h-4.3v-6.2h4.3z"/>
					<path id="&lt;Path&gt;" class="s3" d="m167.5 398.8h-4.3v-6.2h4.3z"/>
					<path id="&lt;Path&gt;" class="s5" d="m152.1 406.2h-4.3v-6.1h4.3z"/>
					<path id="&lt;Path&gt;" class="s3" d="m162.4 406.2h-4.3v-6.1h4.3z"/>
					<path id="&lt;Path&gt;" class="s3" d="m167.5 406.2h-4.3v-6.1h4.3z"/>
					<path id="&lt;Path&gt;" class="s3" d="m157.2 413.7h-4.3v-6.2h4.3z"/>
					<path id="&lt;Path&gt;" class="s3" d="m162.4 413.7h-4.3v-6.2h4.3z"/>
				</g>
			</g>
		</g>
	</g>
</svg>